<?xml version="1.0" encoding="iso-8859-1"?>
<!-- Generator: Adobe Illustrator 21.0.0, SVG Export Plug-In . SVG Version: 6.00 Build 0)  -->
<svg xmlns="http://www.w3.org/2000/svg" xmlns:xlink="http://www.w3.org/1999/xlink" version="1.1" id="Capa_1" x="0px" y="0px" viewBox="0 0 512 512" style="enable-background:new 0 0 512 512;" xml:space="preserve" width="512" height="512">
<g>
	<polygon style="fill:#00459F;" points="389,58.558 403.609,73.253 403.609,360.175 353.667,393.713 153.667,393.713    108.391,360.175 108.391,73.253 123.667,58.558  "/>
	<polygon style="fill:#002D6B;" points="403.609,0 403.609,360.173 388,370.892 297,371.892 256,371.392 256,0  "/>
	<polygon style="fill:#EDF5FF;" points="403.609,360.176 403.609,451.775 303.423,451.775 256,512 208.577,451.775 108.391,451.775    108.391,360.176  "/>
	<polygon style="fill:#DAEAFF;" points="256,360.176 403.609,360.176 403.609,451.775 303.423,451.775 256,512  "/>
	<rect x="108.391" style="fill:#EDF5FF;" width="295.219" height="73.257"/>
	<rect x="241.308" y="393.713" style="fill:#AEADB3;" width="29.39" height="29.39"/>
	<rect x="256.004" y="393.713" style="fill:#8B8992;" width="14.695" height="29.39"/>
	<rect x="256" style="fill:#DAEAFF;" width="147.609" height="73.257"/>
</g>















</svg>
